<svg xmlns="http://www.w3.org/2000/svg" xmlns:xlink="http://www.w3.org/1999/xlink" width="180" height="180" viewBox="0 0 180 180">
  <defs>
    <clipPath id="clip-path">
      <rect id="矩形_2" data-name="矩形 2" width="136" height="52" fill="#fff"/>
    </clipPath>
    <clipPath id="clip-path-2">
      <rect id="矩形_4" data-name="矩形 4" width="120" height="18" fill="#fff"/>
    </clipPath>
  </defs>
  <g id="组_7" data-name="组 7" transform="translate(-468 -423)">
    <rect id="矩形_1" data-name="矩形 1" width="180" height="180" rx="10" transform="translate(468 423)" fill="#1291fe"/>
    <g id="组_2" data-name="组 2" transform="translate(490 473)">
      <g id="组_1" data-name="组 1" transform="translate(0 0)" clip-path="url(#clip-path)">
        <path id="路径_1" data-name="路径 1" d="M44.741.012l-2.37,16.67h-26.3l-6.3,34.962H0L9.185,2.667l-2-2.655ZM29.407,48.84l-.444,3.1H20.148l3.333-23.75H21.407L18.519,48.84H11.481l3.778-26.774H24.37l.519-3.614H33.7l-.519,3.614h9.259L39.037,46.111a2.748,2.748,0,0,1-1.444,1.918,4.7,4.7,0,0,1-2.481.811ZM34.148,6.282H18.074l-.593,4.2H33.556ZM32.3,28.188,29.407,48.84,32,46.111l2.519-17.923ZM55.037,1.561l-5.7,40.42h-8.3l5.7-40.42ZM68.667.012,62,46.775a5.377,5.377,0,0,1-1.926,3.5A5.709,5.709,0,0,1,56.3,51.643H44.444l6.667-7.818L56.963,2.3,55.259.012Z" transform="translate(0 0.062)" fill="#fff"/>
        <path id="路径_2" data-name="路径 2" d="M11.148,51.852l6.963-20.874H30.333L23.37,51.852Zm7.407-23.677-.963-12.613H29.815l.963,12.613ZM20.7,12.76,19.741.148H31.963l.963,12.613Zm26.37,14.752.889-6.2H33.518l.963-7.007H48.926l.889-6.565L36.7,8.04l1.037-7.007L78.333,0,77.37,7.007l-13.926.369-.963,6.933H77.963L77,21.316H61.518l-.889,6.2H74.7L71.444,50.451H30.333l3.259-22.939ZM59.889,43.665l1.333-9.146H45.444l-1.333,9.146Z" transform="translate(57.667 0)" fill="#fff"/>
      </g>
    </g>
    <g id="组_6" data-name="组 6" transform="translate(498 545)">
      <g id="组_5" data-name="组 5" transform="translate(0 0)" clip-path="url(#clip-path-2)">
        <path id="路径_9" data-name="路径 9" d="M7.219,10.2c-.758.212-1.5.4-2.277.617v4.585c0,1.118-.214,1.676-.876,2a6.226,6.226,0,0,1-2.939.424,7.6,7.6,0,0,0-.66-2.081c.779.019,1.576.019,1.829.019.273,0,.37-.1.37-.366V11.418l-2.062.5L0,9.742c.759-.154,1.692-.366,2.666-.6V5.772H.253V3.653H2.666V.011H4.943V3.653H7.026V5.772H4.943V8.585L6.948,8.1Zm10-2.1a19.336,19.336,0,0,1-3.5,5.146c.526,1.078,1.168,1.714,1.928,1.83.446.039.7-.887.836-2.948a7.706,7.706,0,0,0,1.928,1.33c-.506,3.565-1.558,4.469-2.648,4.373a4.9,4.9,0,0,1-3.872-2.852,15.835,15.835,0,0,1-3.64,2.37A9.152,9.152,0,0,0,6.384,15.58a15.889,15.889,0,0,0,4.592-2.813,32.51,32.51,0,0,1-1.09-5.723L7.473,7.3,7.239,5.1l2.454-.231C9.576,3.383,9.5,1.785,9.439.088h2.374c.019,1.6.1,3.123.195,4.567L17.847,4.1l.214,2.138L12.2,6.813a30.922,30.922,0,0,0,.7,4.008,16.547,16.547,0,0,0,2.411-3.854ZM15.044,4.251a26.1,26.1,0,0,0-2.491-2.929L14.3.185a33.34,33.34,0,0,1,2.608,2.775Z" transform="translate(0 0.007)" fill="#fff"/>
        <path id="路径_10" data-name="路径 10" d="M20.209,4.05A25.334,25.334,0,0,1,18.3,12.356a16.9,16.9,0,0,1,2.142,2.2l-1.519,1.965a15.608,15.608,0,0,0-1.791-2.042,11.922,11.922,0,0,1-3.813,3.486,8.748,8.748,0,0,0-1.441-1.811,9.09,9.09,0,0,0,3.581-3.237c-1.013-.866-2.062-1.733-3.036-2.447A43.087,43.087,0,0,0,13.594,5.9H12.211V3.8H14c.234-1.309.409-2.6.527-3.775l2.3.174c-.156,1.136-.351,2.35-.584,3.6H18.4l.389-.058ZM15.812,5.9c-.253,1.311-.565,2.6-.876,3.738.526.4,1.052.829,1.577,1.234a19.035,19.035,0,0,0,1.3-4.972ZM30.35,10.081H26.457V15.5c0,1.176-.253,1.754-1.069,2.119a9.028,9.028,0,0,1-3.406.366,8.4,8.4,0,0,0-.8-2.177c.993.019,2.121.019,2.432.019.331,0,.428-.077.428-.366V10.081H19.937V7.9h4.107V6.073a14.9,14.9,0,0,0,2.374-2.831h-5.7V1.16h7.221l.545-.116,1.556,1.118a23.476,23.476,0,0,1-3.581,4.3V7.9H30.35Z" transform="translate(7.398 0.015)" fill="#fff"/>
        <path id="路径_11" data-name="路径 11" d="M27.74,9.288c-.8-.559-2.471-1.465-3.62-2.081l1.245-1.7c1.071.521,2.8,1.35,3.659,1.868Zm-3.348,6.936a56.783,56.783,0,0,0,3.7-6.068L29.783,11.7c-1.032,2.023-2.257,4.219-3.445,6.089Zm4.183-12.2a40.524,40.524,0,0,0-3.541-2.121l1.3-1.656c1.09.54,2.783,1.386,3.62,1.926ZM37.2,7.784v2.429h3.971V17.9h-2.2v-.694H33.111V18H31.028V10.213H35V7.784H29.822v-2.2H35V3.334c-1.284.193-2.569.328-3.8.443a8.018,8.018,0,0,0-.641-1.966A38.536,38.536,0,0,0,39.649,0l1.791,1.811A25.068,25.068,0,0,1,37.2,2.948v2.64h4.944v2.2Zm1.772,4.51H33.111v2.832h5.858Z" transform="translate(15.02 0)" fill="#fff"/>
        <path id="路径_12" data-name="路径 12" d="M56.545,14.653v2.312H38.952V14.653H45.9V.144h2.492v5.53H55.28V7.985H48.391v6.667Z" transform="translate(24.256 0.088)" fill="#fff"/>
        <path id="路径_13" data-name="路径 13" d="M54.058,6.209v.733c0,2.985-.234,7.475-1.692,10.308a7.877,7.877,0,0,0-1.714-1.271c1.266-2.583,1.363-6.34,1.363-9.037V.6h9.654V6.209Zm0-2.044h5.43V2.624h-5.43ZM61.745,13.9c0,.771-.1,1.272-.563,1.581a2.7,2.7,0,0,1-1.714.366,5.963,5.963,0,0,0-.545-1.793c.389.019.682.019.818.019.136-.019.175-.058.175-.212v-3.8h-1.11v7.8H56.88v-7.8H55.85v5.858H54.175V8.173H56.88v-1.6h1.926v1.6h2.939Zm3.172-1H62.892V1.72h2.025ZM68.362.216V15.111c0,1.174-.234,1.791-.914,2.158a7.353,7.353,0,0,1-3.211.443,8.874,8.874,0,0,0-.662-2.254c.953.039,1.907.039,2.238.039.292,0,.389-.077.389-.4V.216Z" transform="translate(31.542 0.131)" fill="#fff"/>
        <path id="路径_14" data-name="路径 14" d="M66.464,9.288c-.8-.559-2.471-1.465-3.62-2.081l1.245-1.7c1.071.521,2.8,1.35,3.659,1.868Zm-3.348,6.936a57.036,57.036,0,0,0,3.7-6.068L68.507,11.7c-1.032,2.023-2.257,4.219-3.445,6.089ZM67.3,4.028a40.283,40.283,0,0,0-3.541-2.121l1.3-1.656c1.09.54,2.783,1.386,3.62,1.926Zm8.622,3.756v2.429h3.971V17.9h-2.2v-.694H71.835V18H69.754V10.213h3.969V7.784H68.546v-2.2h5.176V3.334c-1.284.193-2.569.328-3.8.443a7.95,7.95,0,0,0-.641-1.966A38.552,38.552,0,0,0,78.375,0l1.79,1.811a25.067,25.067,0,0,1-4.243,1.137v2.64h4.944v2.2Zm1.772,4.51H71.835v2.832h5.858Z" transform="translate(39.134 0)" fill="#fff"/>
      </g>
    </g>
  </g>
</svg>
